# xmcd
#
# Track frame offsets: 
#        150
#        18075
#        32324
#        42749
#        60149
#        76274
#        89896
#        107371
#        126006
#        141531
#        156156
#        171981
#        187131
#
# Disc length: 3046 seconds
#
# Revision: 0
# Processed by: cddbd v1.5.2PL0 Copyright (c) Steve Scherf et al.
# Submitted via: ExactAudioCopy v1.0b1
#
DISCID=a80be40d
DTITLE=Delphines - Cosmic Speed
DYEAR=2001
DGENRE=Blues
TTITLE0=Carboy
TTITLE1=Kopperhead
TTITLE2=Delphine's Desire
TTITLE3=Chick
TTITLE4=Cosmic Speed
TTITLE5=Pitiful Pair
TTITLE6=This Trip
TTITLE7=I Idolize You
TTITLE8=Lowlife
TTITLE9=Do Not Disturb
TTITLE10=Don't Pass Me By
TTITLE11=Cry Easy
TTITLE12=Pissin' In The Wind
EXTD=
EXTT0=
EXTT1=
EXTT2=
EXTT3=
EXTT4=
EXTT5=
EXTT6=
EXTT7=
EXTT8=
EXTT9=
EXTT10=
EXTT11=
EXTT12=
PLAYORDER=
